<svg xmlns="http://www.w3.org/2000/svg" width="22" height="22" viewBox="0 0 22 22" enable-background="new 0 0 22 22"><path fill="#FF8E8E" d="M14.096 7.446H7.904a.75.75 0 0 1 0-1.5h6.191a.75.75 0 0 1 .001 1.5zM14.096 10.046H7.904a.75.75 0 0 1 0-1.5h6.191a.75.75 0 0 1 .001 1.5zM14.096 12.646H7.904a.75.75 0 0 1 0-1.5h6.191a.75.75 0 0 1 .001 1.5z"/><g fill="#FF8E8E"><path d="M12.001 17.4l5.181-5.168a1.145 1.145 0 0 1 1.619 1.619l-5.18 5.168M13.619 19.018l-2.211.591.593-2.209z"/></g><path fill="#FF8E8E" d="M10.981 17.297l-4.94.016-.033-12.732 9.95-.032v7.771l1.8-1.799V4.549c0-.975-.791-1.769-1.766-1.769H6.008a1.77 1.77 0 0 0-1.767 1.769v12.763c0 .977.793 1.77 1.767 1.77h3.189l1.784-1.785z"/></svg>